/* XPM */
static char *_c987b5a6a54480dacf134dd33492937kK0ALIWzSxMosc7T[] = {
/* columns rows colors chars-per-pixel */
"64 64 157 2 ",
"   c #128D19",
".  c #128C19",
"X  c #159A1D",
"o  c #2BF035",
"O  c #2EFE39",
"+  c #2DFD39",
"@  c #3AF737",
"#  c #85D229",
"$  c #92CC27",
"%  c #82C525",
"&  c #21941B",
"*  c #118D19",
"=  c #118C19",
"-  c #149A1D",
";  c #2BF135",
":  c #2EFF39",
">  c #2DFE39",
",  c #3AF837",
"<  c #86D229",
"1  c #93CC27",
"2  c #93CD27",
"3  c #83C525",
"4  c #21941A",
"5  c #108C19",
"6  c #20941B",
"7  c #229F1E",
"8  c #2AE532",
"9  c #2AF035",
"0  c #35EB33",
"q  c #78CA27",
"w  c #83C425",
"e  c #75C024",
"r  c #15991C",
"t  c #128F19",
"y  c #1F941A",
"u  c #75BE24",
"i  c #17991D",
"p  c #20951B",
"a  c #2C9A1C",
"s  c #77BF24",
"d  c #28E432",
"f  c #148E19",
"g  c #149A1C",
"h  c #108B18",
"j  c #14991C",
"k  c #29F035",
"l  c #2CFD39",
"z  c #38F737",
"x  c #84D229",
"c  c #91CB27",
"v  c #91CC27",
"b  c #81C425",
"n  c #0F8C19",
"m  c #128B19",
"M  c #15991D",
"N  c #78CB28",
"B  c #22A11E",
"V  c #2BE633",
"C  c #2DA321",
"Z  c #2E981E",
"A  c #31A422",
"S  c #44F037",
"D  c #47FC3B",
"F  c #46FC3B",
"G  c #51F639",
"H  c #94D52D",
"J  c #9ED02B",
"K  c #9FD12B",
"L  c #91CA29",
"P  c #3B9F20",
"I  c #2D981E",
"U  c #389E1F",
"Y  c #78BF25",
"T  c #18A420",
"R  c #28E632",
"E  c #38F637",
"W  c #2CF135",
"Q  c #CADB3D",
"!  c #E4E442",
"~  c #E2E442",
"^  c #E2E342",
"/  c #E3E542",
"(  c #E5EF45",
")  c #E6F145",
"_  c #E7F045",
"`  c #F0EC43",
"'  c #F1EB43",
"]  c #EFEA43",
"[  c #CCDA3D",
"{  c #FFF148",
"}  c #FFF047",
"|  c #FFEF47",
" . c #0E8C18",
".. c #2C981E",
"X. c #FEEF47",
"o. c #FEEF48",
"O. c #22951B",
"+. c #2E991E",
"@. c #46A323",
"#. c #E6E542",
"$. c #FEEF46",
"%. c #FEF140",
"&. c #FEF13F",
"*. c #2A971E",
"=. c #158E1A",
"-. c #8DC829",
";. c #D7E03E",
":. c #E3E442",
">. c #FBEE46",
",. c #FFFB10",
"<. c #FFFD08",
"1. c #CAD93D",
"2. c #F3EC44",
"3. c #FFF048",
"4. c yellow",
"5. c #8FCB27",
"6. c #9DD02B",
"7. c #25A01E",
"8. c #8ECA29",
"9. c #A9D42E",
"0. c #F3EB44",
"q. c #FEF337",
"w. c #FFFD07",
"e. c #FFFF02",
"r. c #FFFE10",
"t. c #FFFE12",
"y. c #42EF37",
"u. c #DAEB42",
"i. c #F3EB43",
"p. c #FCEF47",
"a. c #FFFF01",
"s. c #FFF975",
"d. c #FFF885",
"f. c #FFF884",
"g. c #E6F146",
"h. c #FFF798",
"j. c #FFF797",
"k. c #FFF796",
"l. c #FFFE11",
"z. c #FFF886",
"x. c #FFF794",
"c. c #FFFD21",
"v. c #37EC34",
"b. c #24A01E",
"n. c #85D029",
"m. c #82C626",
"M. c #2EFD39",
"N. c #2EFB39",
"B. c #2BF136",
"V. c #18A620",
"C. c #46FB3B",
"Z. c #2CFE39",
"A. c #39F837",
"S. c #42F135",
"D. c #7ACB27",
"F. c #2D9C1C",
"G. c white",
/* pixels */
"    . X o O + @ # $ $ % & *         * & % $ $ % & *         * & % $ $ % & * . X o O O o X .         * & % $ $ % & *             ",
"    . X o O + @ # $ $ % & *         * & % $ $ % & *         * & % $ $ % & * . X o O O o X .         * & % $ $ % & *             ",
"* * = - ; : > , < 1 2 3 4 = . .     * & 3 2 2 3 4 = . . = * 5 6 3 2 2 3 & * . X ; : : ; X .     * * 5 6 3 2 2 3 & *     . . . . ",
"& & 4 7 8 ; 9 0 q w 3 e 7 - X r t   * y u 3 3 e 7 - X i p & 6 a s 3 3 u y * . r d ; ; d r .   f y & 6 a s 3 3 u y *   t r X X X ",
"% % 3 e 7 - X i p & 4 7 8 ; ; d r .   f y & 4 7 8 ; 9 0 q w 3 s a 6 & y f     t r X X r t   * y u 3 3 s a 6 & y f   . r d ; o o ",
"$ $ 2 3 4 = . . = * = - ; : : ; X .     * * = - ; : > , < 1 2 3 6 5 * *         . . . .     * & 3 2 2 3 6 5 * *     . X ; : O O ",
"$ $ 1 w 4 = . .     . X ; : : ; g h 5 5 5 5 h j k > l z x c v b y n 5 5 5 5 5 5 5 5 5 5 5 5 n y 3 2 2 3 & *     . . m M ; : O O ",
"# # < N B - X r t   . r d ; ; V C Z Z Z Z Z Z A S D F G H J K L P I Z Z Z Z Z Z Z Z Z Z Z Z I U Y 3 3 u y *   t r X M T R ; o o ",
"@ @ @ E W o ; d r .   t r X g C Q ! ~ ~ ~ ~ ^ / ( ) ) _ ` ' ' ] ! ^ ~ ~ ~ ~ ~ ~ ~ ~ ~ ~ ~ ~ ! [ U y & y f   . r d ; ; R T M X X ",
"+ + + + O O : ; X .     . . h Z ! { } } } } } } | | | | | | | | } } } } } } } } } } } } } } { ! I n * *     . X ; : : ; M m . . ",
"O O O O O O : ; - = * = 5 5  ...^ } X.X.X.o.o.o.o.o.o.o.o.o.o.o.o.o.o.o.o.o.o.o.o.o.o.X.X.X.} ^ .. .5 5     . X 9 > > 9 X .     ",
"o o o o o o ; 8 7 4 & O...+...@.#.} X.$.%.&.&.&.&.&.&.&.&.&.&.&.&.&.&.&.&.&.&.&.&.&.&.%.$.X.} #.@...+.*.=.  . i 0 , , 0 i .     ",
"X X X X X X - 7 e 3 b -.;.:.^ #.>.X.X.%.,.<.<.<.<.<.<.<.<.<.<.<.<.<.<.<.<.<.<.<.<.<.<.,.%.X.X.>.#.^ ! 1.*.5 = p q < < q p =     ",
". . . . . . = 4 3 2 v K 2.3.} } X.X.o.&.<.4.4.4.4.4.4.4.4.4.4.4.4.4.4.4.4.4.4.4.4.4.4.<.&.o.X.X.} } 3.! +.5 * & w 1 1 w & *     ",
"        . . = 4 b v 5.6.' | X.X.X.o.o.&.<.4.4.4.4.4.4.4.4.4.4.4.4.4.4.4.4.4.4.4.4.4.4.<.&.o.o.X.X.X.} ^ .. .n y 3 2 2 3 6 5 * * ",
"      t r X - 7.8.K 6.9.0.| X.$.%.&.&.q.w.4.4.4.4.4.4.e.r.t.t.t.t.t.t.t.t.t.t.r.e.4.4.w.q.&.&.%.$.X.} #.@...I U Y 3 3 s a 6 & & ",
"    . r d ; k y.u.i.' 0.p.X.X.%.,.<.<.w.a.4.4.4.4.4.4.r.s.d.f.f.f.f.f.f.f.f.d.s.r.4.4.a.w.<.<.,.%.X.X.>.#.^ ! [ U y 6 a s 3 % % ",
"    . X ; : > D g.| | | X.X.o.&.<.4.4.4.4.4.4.4.4.4.4.t.d.h.j.j.j.j.j.j.j.j.h.d.t.4.4.4.4.4.4.<.&.o.X.X.} } { ! I n 5 6 3 2 $ $ ",
"* * = - ; : > D ) | X.X.X.o.o.&.<.4.4.4.4.4.4.4.4.4.4.t.d.h.j.j.j.j.j.j.k.k.j.f.l.4.4.4.4.4.4.<.&.o.o.X.X.X.} ~ Z 5 * & w 1 $ $ ",
"& & 4 7 8 ; k S ( | X.$.%.&.&.q.w.4.4.4.4.4.4.4.4.4.4.r.s.d.f.f.f.f.f.z.x.k.j.z.c.l.t.r.e.4.4.w.q.&.&.%.$.X.} ~ Z 5 = p q < # # ",
"% % 3 e 7 - j A / } X.%.,.<.<.w.a.4.4.4.4.4.4.4.4.4.4.e.r.t.t.t.t.t.l.c.z.j.k.x.z.f.d.s.r.4.4.a.w.<.<.,.%.X.} ~ Z 5 . i 0 , @ @ ",
"$ $ 2 3 4 = h Z ^ } o.&.<.4.4.4.4.4.4.4.4.4.4.4.4.4.4.4.4.4.4.4.4.4.4.l.f.j.k.k.j.j.h.d.t.4.4.4.4.4.4.<.&.o.} ~ Z 5 . X 9 > + + ",
"$ $ 2 3 & * 5 Z ~ } o.&.<.4.4.4.4.4.4.4.4.4.4.4.4.4.4.4.4.4.4.4.4.4.4.t.d.h.j.j.k.k.j.f.l.4.4.4.4.4.4.<.&.o.} ~ Z 5 . X ; : O O ",
"% % 3 u y * 5 Z ~ } o.&.<.4.4.4.4.4.4.4.4.4.4.4.4.4.4.4.4.4.4.4.4.4.4.r.s.d.f.z.x.k.j.z.c.l.t.r.e.4.4.<.&.o.} ~ Z 5 . r d ; o o ",
"& & & y f   5 Z ~ } o.&.<.4.4.4.4.4.4.4.4.4.4.4.4.4.4.4.4.4.4.4.4.4.4.e.r.t.l.c.z.j.k.x.z.f.d.s.r.4.4.<.&.o.} ~ Z 5   t r X X X ",
"* * * *     5 Z ~ } o.&.<.4.4.4.4.4.4.4.4.4.4.4.4.4.4.4.4.4.4.4.4.4.4.4.4.4.4.l.f.j.k.k.j.j.h.d.t.4.4.<.&.o.} ~ Z 5     . . . . ",
". . . .     5 Z ~ } o.&.<.4.4.4.4.4.4.4.4.4.4.4.4.4.4.4.4.4.4.4.4.4.4.4.4.4.4.t.d.h.j.j.k.k.j.f.t.4.4.<.&.o.} ^ Z h . .         ",
"X X X r t   5 Z ~ } o.&.<.4.4.4.4.4.4.4.4.4.4.4.4.4.4.4.4.4.4.4.4.4.4.4.4.4.4.r.s.d.f.z.x.k.j.f.t.4.4.<.&.o.} / A j X r t       ",
"o o ; d r . 5 Z ~ } o.&.<.4.4.4.4.4.4.4.4.4.4.4.4.4.4.4.4.4.4.4.4.4.4.4.4.4.4.e.r.t.l.c.z.j.j.f.t.4.4.<.&.o.| ( S k ; d r .     ",
"O O : ; X . 5 Z ~ } o.&.<.4.4.4.4.4.4.4.4.4.4.4.4.4.4.4.4.4.4.4.4.4.4.4.4.4.4.4.4.4.4.l.f.j.j.f.t.4.4.<.&.o.| ) D > : ; X .     ",
"O O : ; - = n I ^ } o.&.<.4.4.4.4.4.4.4.4.4.4.4.4.4.4.4.4.4.4.4.4.4.4.4.4.4.4.4.4.4.4.t.f.j.j.f.t.4.4.<.&.o.| ) F l > 9 - = * * ",
"o o ; 8 7 4 y P ! } o.&.<.4.4.4.4.4.4.4.4.4.4.4.4.4.4.4.4.4.4.4.4.4.4.4.4.4.4.4.4.4.4.t.f.j.j.f.t.4.4.<.&.o.| _ G z , v.b.4 & & ",
"X X - 7 e 3 b L ] | o.&.<.4.4.4.4.4.4.4.4.4.4.4.4.4.4.4.4.4.4.4.4.4.4.4.4.4.4.4.4.4.4.t.f.j.j.f.t.4.4.<.&.o.| ` H x # n.m.% % % ",
". . = 4 3 2 v K ' | o.&.<.4.4.4.4.4.4.4.4.4.4.4.4.4.4.4.4.4.4.4.4.4.4.4.4.4.4.4.4.4.4.t.f.j.j.f.t.4.4.<.&.o.| ' J c $ $ $ $ $ $ ",
"    * & 3 2 v K ' | o.&.<.4.4.4.4.4.4.4.4.4.4.4.4.4.4.4.4.4.4.4.4.4.4.4.4.4.4.4.4.4.4.t.d.h.h.d.t.4.4.<.&.o.| ' K v $ $ $ $ $ $ ",
"    * y u 3 b L ] | o.&.<.4.4.4.4.4.4.4.4.4.4.4.4.4.4.4.4.4.4.4.4.4.4.4.4.4.4.4.4.4.4.r.s.d.d.s.r.4.4.<.&.o.| ] L b % % % % % % ",
"      f y & y P ! } o.&.<.4.4.4.4.4.4.4.4.4.4.4.4.4.4.4.4.4.4.4.4.4.4.4.4.4.4.4.4.4.4.e.r.t.t.r.e.4.4.<.&.o.} ! P y & & & & & & ",
"        * * n I ^ } o.&.<.4.4.4.4.4.4.4.4.4.4.4.4.4.4.4.4.4.4.4.4.4.4.4.4.4.4.4.4.4.4.4.4.4.4.4.4.4.4.<.&.o.} ^ I n * * * * * * ",
"        . . h Z ^ } o.&.<.4.4.4.4.4.4.4.4.4.4.4.4.4.4.4.4.4.4.4.4.4.4.4.4.4.4.4.4.4.4.4.4.4.4.4.4.4.4.<.&.o.} ~ Z 5     . . . . ",
"      t r X j A / } o.&.<.4.4.4.4.4.4.4.4.4.4.4.4.4.4.4.4.4.4.4.4.4.4.4.4.4.4.4.4.4.4.4.4.4.4.4.4.4.4.<.&.o.} ~ Z 5   t r X X X ",
"    . r d ; k S ( | o.&.<.4.4.4.4.4.4.4.4.4.4.4.4.4.4.4.4.4.4.4.4.4.4.4.4.4.4.4.4.4.4.4.4.4.4.4.4.4.4.<.&.o.} ~ Z 5 . r d ; o o ",
"    . X ; : > D ) | o.&.<.4.4.4.4.4.4.4.4.4.4.4.4.4.4.4.4.4.4.4.4.4.4.4.4.4.4.4.4.4.4.4.4.4.4.4.4.4.4.<.&.o.} ~ Z 5 . X ; : O O ",
"* * = - ; : > D ) | o.&.<.4.4.4.4.4.4.4.4.4.4.4.4.4.4.4.4.4.4.4.4.4.4.4.4.4.4.4.4.4.4.4.4.4.4.4.4.4.4.<.&.o.} ^ I n = - ; : O O ",
"& & 4 7 8 ; k S ( | X.%.,.<.<.w.a.4.4.4.4.4.4.4.4.4.4.4.4.4.4.4.4.4.4.4.4.4.4.4.4.4.4.4.4.4.4.a.w.<.<.,.%.X.} ! P y 4 7 8 ; o o ",
"% % 3 e 7 - j A / } X.$.%.&.&.q.w.4.4.4.4.4.4.4.4.4.4.4.4.4.4.4.4.4.4.4.4.4.4.4.4.4.4.4.4.4.4.w.q.&.&.%.$.X.| ] L b 3 e 7 - X X ",
"$ $ 2 3 4 = h Z ^ } X.X.X.o.o.&.<.4.4.4.4.4.4.4.4.4.4.4.4.4.4.4.4.4.4.4.4.4.4.4.4.4.4.4.4.4.4.<.&.o.o.X.X.X.| ' K v 2 3 4 = . . ",
"$ $ 2 3 & * 5 +.! 3.} } X.X.o.&.<.4.4.4.4.4.4.4.4.4.4.4.4.4.4.4.4.4.4.4.4.4.4.4.4.4.4.4.4.4.4.<.&.o.X.X.} } 3.2.K v 2 3 6 5 * * ",
"% % 3 u y * 5 *.1.! ^ #.>.X.X.%.,.<.<.w.a.4.4.4.4.4.4.4.4.4.4.4.4.4.4.4.4.4.4.4.4.4.4.a.w.<.<.,.%.X.X.>.#.^ :.;.-.b 3 s a 6 & & ",
"& & & y f     =.*.+...@.#.} X.$.%.&.&.q.w.4.4.4.4.4.4.4.4.4.4.4.4.4.4.4.4.4.4.4.4.4.4.w.q.&.&.%.$.X.} #.@...+...O.& 6 a s 3 % % ",
"* * * *         5 5  ...^ } X.X.X.o.o.&.<.4.4.4.4.4.4.4.4.4.4.4.4.4.4.4.4.4.4.4.4.4.4.<.&.o.o.X.X.X.} ^ .. .5 5 = * 5 6 3 2 $ $ ",
". . . . . . . .     5 +.! 3.} } X.X.o.&.<.4.4.4.4.4.4.4.4.4.4.4.4.4.4.4.4.4.4.4.4.4.4.<.&.o.X.X.} } { ! Z h . .     * & w 1 $ $ ",
"X X X X X X X r t   5 *.1.! ^ #.>.X.X.%.,.<.<.<.<.<.<.<.<.<.<.<.<.<.<.<.<.<.<.<.<.<.<.,.%.X.X.>.#.^ ! Q C g X r t   = p q < # # ",
"o o o o o o ; d r .   =.*.+...@.#.} X.$.%.&.&.&.&.&.&.&.&.&.&.&.&.&.&.&.&.&.&.&.&.&.&.%.$.X.} #.@...Z C V ; ; d r . . i 0 , @ @ ",
"O O O O O O : ; X .     5 5  ...^ } X.X.X.o.o.o.o.o.o.o.o.o.o.o.o.o.o.o.o.o.o.o.o.o.o.X.X.X.} ^ .. .h g ; : : ; X . . X 9 > + + ",
"M.M.M.M.O O : ; M m . .     5 +.! 3.} } | | | | | | | | | | | | } } } } | | | | | | | | } } 3.! +.5 . X ; : : ; X . . X ; : O O ",
"M.M.M.N.B.o ; R T M X r t   5 *.1.! ^ / ( ) ) ) ) ) ) _ ` ' ' ] ! ^ ^ / ( ) ) _ ` ' ' ] ! ^ ! 1.*.5 . r d ; ; d r . . r d ; o o ",
"M.M.O B.V.M M T R ; ; d r .   =.*.+.Z A S D C.C.C.C.F G H J K L P I Z A S D F G H J K L P I +.*.=.    t r X X r t     t r X X X ",
"M.M.O o M m m M ; : : ; X .     5 5 h j k > l l l l l z x c v b y n h j k > l z x c v b y n 5 5         . . . .         . . . . ",
"O O : ; - = = - ; : : ; M m . .     . X ; : O O M.M.+ @ < 1 2 3 & * . X 9 > Z.A.< 1 2 3 & *     . . . .         * * * *         ",
"o o ; 8 7 4 4 7 8 ; ; R T M X r t   . r d ; o B.N.M.+ E N w 3 u y * . i 0 , A.S.D.w 3 u y *   t r X X r t     f y & & y f       ",
"X X - 7 e 3 3 e 7 - M T R ; ; d r .   t r X M V.B.O O W B 4 & y f   = p q < < D.F.6 & y f   . r d ; ; d r . * y u 3 3 u y *     ",
". . = 4 3 2 2 3 4 = m M ; : : ; X .     . . m M o O O o - = * *     * & w 1 1 w 6 5 * *     . X ; : : ; X . * & 3 2 2 3 & *     ",
"    * & % $ $ % & * . X o O O o X .         . X o O O o X .         * & % $ $ % & *         . X o O O o X . * & % $ $ % & *     ",
"    * & % $ $ % & * . X o O O o X .         . X o O O o X .         * & % $ $ % & *         . X o O O o X . * & % $ $ % & *     "
};
