/* XPM */
static char *one64[] = {
/* columns rows colors chars-per-pixel */
"64 64 3 1 ",
"  c black",
". c #808080",
"X c #FEF0FD",
/* pixels */
"............XXXX....................................    ........",
"............XXXX....................................    ........",
"............XXXX....................................    ........",
"............XXXX....................................    ........",
"....XXXX........    ....XXXX........    XXXX....XXXXXXXX........",
"....XXXX........    ....XXXX........    XXXX....XXXXXXXX........",
"....XXXX........    ....XXXX........    XXXX....XXXXXXXX........",
"....XXXX........    ....XXXX........    XXXX....XXXXXXXX........",
"........    ............    XXXX....XXXX....................    ",
"........    ............    XXXX....XXXX....................    ",
"........    ............    XXXX....XXXX....................    ",
"........    ............    XXXX....XXXX....................    ",
"....    ........XXXX............    ............XXXX............",
"....    ........XXXX............    ............XXXX............",
"....    ........XXXX............    ............XXXX............",
"....    ........XXXX............    ............XXXX............",
"........XXXX....    XXXX....XXXX........    ........    ........",
"........XXXX....    XXXX....XXXX........    ........    ........",
"........XXXX....    XXXX....XXXX........    ........    ........",
"........XXXX....    XXXX....XXXX........    ........    ........",
"....XXXX    XXXX........XXXX    ............................XXXX",
"....XXXX    XXXX........XXXX    ............................XXXX",
"....XXXX    XXXX........XXXX    ............................XXXX",
"....XXXX    XXXX........XXXX    ............................XXXX",
"XXXX    ................................    ............    ....",
"XXXX    ................................    ............    ....",
"XXXX    ................................    ............    ....",
"XXXX    ................................    ............    ....",
"................    ............................XXXX....XXXX....",
"................    ............................XXXX....XXXX....",
"................    ............................XXXX....XXXX....",
"................    ............................XXXX....XXXX....",
"....XXXX....XXXX................    ........    ....    ........",
"....XXXX....XXXX................    ........    ....    ........",
"....XXXX....XXXX................    ........    ....    ........",
"....XXXX....XXXX................    ........    ....    ........",
"....    ....    ....    ........................XXXX........XXXX",
"....    ....    ....    ........................XXXX........XXXX",
"....    ....    ....    ........................XXXX........XXXX",
"....    ....    ....    ........................XXXX........XXXX",
"................................    XXXX........    ............",
"................................    XXXX........    ............",
"................................    XXXX........    ............",
"................................    XXXX........    ............",
"XXXX....XXXX....XXXX........XXXX............................XXXX",
"XXXX....XXXX....XXXX........XXXX............................XXXX",
"XXXX....XXXX....XXXX........XXXX............................XXXX",
"XXXX....XXXX....XXXX........XXXX............................XXXX",
"....    ........    ....    XXXX........    ........    ........",
"....    ........    ....    XXXX........    ........    ........",
"....    ........    ....    XXXX........    ........    ........",
"....    ........    ....    XXXX........    ........    ........",
"........XXXX........................XXXX....XXXXXXXX........XXXX",
"........XXXX........................XXXX....XXXXXXXX........XXXX",
"........XXXX........................XXXX....XXXXXXXX........XXXX",
"........XXXX........................XXXX....XXXXXXXX........XXXX",
"XXXX................XXXX........        ........................",
"XXXX................XXXX........        ........................",
"XXXX................XXXX........        ........................",
"XXXX................XXXX........        ........................",
"........XXXX....    ............................XXXX............",
"........XXXX....    ............................XXXX............",
"........XXXX....    ............................XXXX............",
"........XXXX....    ............................XXXX............"
};
