/* XPM */
static char *f2c5107d84334166faf40c605e62df0diTsmzTM1r7Ihcg1U[] = {
/* columns rows colors chars-per-pixel */
"64 64 246 2 ",
"   c #128D19",
".  c #128C19",
"X  c #159A1D",
"o  c #2BF035",
"O  c #2EFE39",
"+  c #2DFD39",
"@  c #3AF737",
"#  c #85D229",
"$  c #92CC27",
"%  c #82C525",
"&  c #21941B",
"*  c #118D19",
"=  c #118C19",
"-  c #149A1D",
";  c #2BF135",
":  c #2EFF39",
">  c #2DFE39",
",  c #3AF837",
"<  c #86D229",
"1  c #93CC27",
"2  c #93CD27",
"3  c #83C525",
"4  c #21941A",
"5  c #83C425",
"6  c #20941A",
"7  c #108C19",
"8  c #118B18",
"9  c #15991C",
"0  c #20941B",
"q  c #229F1E",
"w  c #2AE532",
"e  c #2AF035",
"r  c #35EB33",
"t  c #78CA27",
"y  c #75C024",
"u  c #128F19",
"i  c #20951B",
"p  c #76C024",
"a  c #2A9F1F",
"s  c #1D9A1E",
"d  c #1E991E",
"f  c #1FA421",
"g  c #29E633",
"h  c #28E432",
"j  c #148E19",
"k  c #1F941A",
"l  c #2C9A1C",
"z  c #77BF24",
"x  c #75BE24",
"c  c #17991D",
"v  c #62E43B",
"b  c #6BF03F",
"n  c #60E53B",
"m  c #78FE45",
"M  c #159B1D",
"N  c #2BF236",
"B  c #2FFF3A",
"V  c #1E9B1E",
"C  c #128B19",
"Z  c #15991D",
"A  c #78CB28",
"S  c #22A11E",
"D  c #28E232",
"F  c #138A1A",
"G  c #107C16",
"H  c #138819",
"J  c #26D42F",
"K  c #29E033",
"L  c #0F7C16",
"P  c #1A8A1B",
"I  c #60E23A",
"U  c #18A420",
"Y  c #28E632",
"T  c #38F637",
"R  c #2CF135",
"E  c #042106",
"W  c #020F03",
"Q  c #021003",
"!  c #021203",
"~  c #051C06",
"^  c #051E07",
"/  c #052106",
"(  c black",
")  c #2EFD39",
"_  c #21951B",
"`  c #118E19",
"'  c #107D16",
"]  c #011002",
"[  c #36FD3A",
"{  c #37FD3A",
"}  c #35FB3A",
"|  c #2CF136",
" . c #75BC24",
".. c #1D8518",
"X. c #107015",
"o. c #0F1C10",
"O. c #0F0E0F",
"+. c gray6",
"@. c gray5",
"#. c #020202",
"$. c #169A1D",
"%. c #1E9A1E",
"&. c #21A521",
"*. c #36EC34",
"=. c #6EFC43",
"-. c #6EFD43",
";. c #63F13E",
":. c #20A621",
">. c #062006",
",. c #646664",
"<. c #727272",
"1. c #646464",
"2. c #32F036",
"3. c #63EF3E",
"4. c #6BEF3F",
"5. c #6AEF3F",
"6. c #6DEC3C",
"7. c #82D52C",
"8. c #77FC44",
"9. c #77FD44",
"0. c gray51",
"q. c #37FE3B",
"w. c #77FD45",
"e. c #7AF741",
"r. c #8FD12A",
"t. c #92CB27",
"y. c #128E19",
"u. c #021103",
"i. c #8FD22B",
"p. c #6DEA3C",
"a. c #7FCA28",
"s. c #82C425",
"d. c #24A01E",
"f. c #37EC34",
"g. c #000200",
"h. c #82C626",
"j. c #85D029",
"k. c #0E6E13",
"l. c #60E33B",
"z. c #1C981D",
"x. c #107E16",
"c. c #041F06",
"v. c #2D9C1C",
"b. c #7ACB27",
"n. c #138F1A",
"m. c #42F135",
"M. c #39F837",
"N. c #2CFE39",
"B. c #21961B",
"V. c #83C626",
"C. c #93CE27",
"Z. c #86D329",
"A. c #15971C",
"S. c #118017",
"D. c #1D8318",
"F. c #73AE21",
"G. c #81B423",
"H. c #81B422",
"J. c #76BB25",
"K. c #35E933",
"L. c #26D62F",
"P. c #072B09",
"I. c #041103",
"U. c #0F1704",
"Y. c #111805",
"T. c #111704",
"R. c #122707",
"E. c #158B1A",
"W. c #051D07",
"Q. c #010F03",
"!. c #3AF937",
"~. c #2EFF3A",
"^. c #29E133",
"/. c #78C827",
"(. c #33DC31",
"). c #28E032",
"_. c #24C52C",
"`. c #051A06",
"'. c #127F17",
"]. c #1F921A",
"[. c #1E8618",
"{. c #092C09",
"}. c #010301",
"|. c #112607",
" X c #73AF21",
".X c #1A881B",
"XX c #031204",
"oX c #6BF13F",
"OX c #5ED338",
"+X c #0C1C07",
"@X c #78FF45",
"#X c #69DF3C",
"$X c #0E1E08",
"%X c #76FC44",
"&X c #77FE45",
"*X c #68DF3C",
"=X c #21A621",
"-X c #76FB44",
";X c #79F741",
":X c #79F641",
">X c #7AF841",
",X c #6BD939",
"<X c #0E1D08",
"1X c #34F137",
"2X c #6DFB42",
"3X c #8BD72D",
"4X c #8ED12A",
"5X c #8FD32B",
"6X c #7DB925",
"7X c #111905",
"8X c #91CB27",
"9X c #92CD27",
"0X c #80B422",
"qX c #010F02",
"wX c #0E2B0A",
"eX c #5ED538",
"rX c #128017",
"tX c #1C971D",
"yX c #80CB29",
"uX c #23A11E",
"iX c #7AF641",
"pX c #70F63F",
"aX c #6DFD43",
"sX c #2AA11F",
"dX c #79CB28",
"fX c #65F03E",
"gX c #3FF638",
"hX c #39F737",
"jX c #2EFB39",
"kX c #2BF136",
"lX c #18A620",
"zX c #111604",
"xX c #101704",
"cX c #041C06",
"vX c #14310A",
"bX c #73B122",
"nX c #202E09",
"mX c #7FBC26",
"MX c #29E032",
"NX c #28D730",
"BX c #229D1D",
"VX c #7AEF3D",
"CX c #76FD44",
"ZX c #91CC27",
"AX c #8ED22A",
"SX c white",
/* pixels */
"    . X o O + @ # $ $ % & *         * & % $ $ % & *         * & % $ $ % & * . X o O O o X .         * & % $ $ % & *             ",
"    . X o O + @ # $ $ % & *         * & % $ $ % & *         * & % $ $ % & * . X o O O o X .         * & % $ $ % & *             ",
"* * = - ; : > , < 1 2 3 4 = . .     * & 5 1 1 5 & *     . . = 4 3 2 2 3 6 7 8 9 ; : : ; X .     * * 7 0 3 2 2 3 & *     . . . . ",
"& & 4 q w ; e r t 5 3 y q - X 9 u   = i t < < t i =   u 9 X - q y 3 3 p a s d f g ; ; h 9 .   j k & 0 l z 3 3 x k *   u 9 X X X ",
"% % 3 y q - X c i & 4 q w ; ; h 9 . . c r , , r c . . 9 h ; ; w q 4 6 a v b b n f 9 X 9 u   * k x 3 3 z l 0 & k j   . 9 h ; o o ",
"$ $ 2 3 4 = . . = * = - ; : : ; X . . X e > > e X . . X ; : : ; - = 7 s b m m b d 8 . .     * & 3 2 2 3 0 7 * *     . X ; : O O ",
"$ $ 1 5 4 = . .     . X ; : : ; - = = - ; : : ; M     M N B B N M   * V b m m b d 8 . . = * 7 0 3 2 2 3 & *     . . C Z ; : O O ",
"# # < A S - X 9 u   . 9 h ; ; w q 4 4 q w ; ; D F G G H J K K J H G L P I b b n f 9 X c i & 0 l z 3 3 x k *   u 9 X Z U Y ; o o ",
"@ @ @ T R o ; h 9 .   u 9 X - q y 3 3 y q - M F E W Q ! ~ ^ ^ ~ ! Q W / P V d f g ; e r t 5 3 z l 0 & k j   . 9 h ; ; Y U Z X X ",
"+ + + + O O : ; X .     . . = 4 3 2 2 3 4 =   G W ( ( ( ( ( ( ( ( ( ( W L * 8 9 ; : > , < 1 2 3 0 7 * *     . X ; : : ; Z C . . ",
"+ + + ) O O : ; X .     * * 7 0 3 2 2 3 _ ` u ' ] ( ( ( ( ( ( ( ( ( ( ] ' u   M ; : > , < 1 2 3 4 = . . = = 8 9 e > > e X .     ",
"[ [ { } | o ; h 9 .   j k & 0 l z 3 3  ...L ' X.o.O.+.@.#.( ( #.@.+.O.o.X.' G F D ; e r t 5 3 y q - X $.s %.d &.*., , r c .     ",
"=.=.-.;.:.9 X 9 u   * k x 3 3 z l 0 _ ..>.Q ] o.,.<.<.1.@.( ( @.1.<.<.,.o.] W E F M X c i & 4 q w ; e 2.3.4.5.6.7.< < t i =     ",
"8.8.9.4.d 8 . .     * & 3 2 2 3 0 7 ` L Q ( ( O.<.0.0.<.+.( ( +.<.0.0.<.O.( ( W G   . . = * = - ; : O q.-.9.w.e.r.t.1 5 & *     ",
"9.9.m b d 8 . .     * & 5 1 1 5 & * y.G u.( ( +.<.0.0.<.+.( ( +.<.0.0.<.+.( ( u.G y.    * * = - ; : O q.-.9.w.e.i.$ 2 3 0 7 * * ",
"5.5.b n f 9 X 9 u   = i t < < t i = y.G u.( ( @.1.<.<.1.@.( ( @.1.<.<.1.@.( ( u.G y.  j k & 4 q w ; e 2.3.4.5.p.a.s.3 z l 0 & & ",
"%.%.d f g ; ; h 9 . . c r , , r c . y.G u.( ( #.@.+.+.@.#.( ( #.@.+.+.@.#.( ( u.G y.* k x 3 3 y q - X $.s %.%.d _ & 0 l z 3 % % ",
"= = 8 9 ; : : ; X . . X e > > e X . y.G u.( ( ( ( ( ( ( ( ( ( ( ( ( ( ( ( ( ( u.G y.* & 3 2 2 3 4 = . . = = = = = * 7 0 3 2 $ $ ",
"* * = - e > > e 9 8 8 9 ; : : ; Z C   G W ( ( ( ( ( ( ( ( ( ( ( ( ( ( ( ( ( ( Q L ` 7 0 3 2 2 3 4 = . . = * * *     * & 5 1 $ $ ",
"& & 4 d.f., , *.&.d d f g ; ; Y U Z M F E W u.W g.( ( ( ( ( ( ( ( ( ( g.W u.Q >..._ 0 l z 3 3 y q - X c i & & k j   = i t < # # ",
"% % % h.j.# < 7.6.5.b n f 9 Z U Y ; ; D F G ' k.W ( ( ( ( ( ( ( ( ( ( W k.' L .. .3 3 z l 0 4 q w ; e r t 5 3 x k * . c r , @ @ ",
"$ $ $ $ $ $ t.r.e.w.m b d 8 C Z ; : : ; M   u ' u.( ( ( ( ( ( ( ( ( ( u.' u ` _ 3 2 2 3 0 7 = - ; : > , < 1 2 3 & * . X e > + + ",
"$ $ $ $ $ $ t.r.e.w.m b %.= . X ; : : ; X . y.G Q ( ( ( ( ( ( ( ( ( ( Q L ` 7 0 5 1 1 5 & * . X ; : > , # $ $ % & * . X e O + + ",
"% % % h.j.# < 7.6.5.b l.z.= . 9 h ; ; h 9 . y.x.c.Q u.W g.( ( g.W u.Q >..._ 0 v.b.< < t i = . 9 h ; e f.j.$ $ % & * . $.2.q.[ [ ",
"& & 4 d.f., , *.&.d %.z.n.    u 9 X X 9 u     C x.G ' k.W ( ( W k.' L .. .3 5 b.m.M., r c .   u 9 X - d.h.$ $ % & * = s 3.-.=.=.",
"* * = - e > > e 9 8 = =         . . . .         y.y.u ' u.( ( u.' u ` _ 3 2 1 < M.N.> e X .     . . = 4 % $ $ % & * = %.4.9.8.8.",
". . C Z ; : : ; Z C . . = * * = . . . . y.y.y.y.y.y.u ' u.( ( u.' u ` B.V.C.2 Z., > : ; X .     . . = 4 3 2 2 3 4 = 8 d b m 9.9.",
"X X Z U Y ; ; Y U Z X c i & & i c X X A.S.G G G G G ' k.W ( ( W k.' L D.F.G.H.J.K.e ; h 9 .   u 9 X - q y 3 3 y q - 9 f n b 5.5.",
"o o ; Y U Z Z U Y ; e r t 5 5 t r e N L.P.W u.u.u.u.u.W g.( ( g.W u.Q I.U.Y.T.R.E.M X 9 u   . 9 h ; ; w q 4 4 q w ; ; g f d %.%.",
"O O : ; Z C C Z ; : > , < 1 1 < , > B K W.( ( ( ( ( ( ( ( ( ( ( ( ( ( ( ( ( ( Q.G   . .     . X ; : : ; - = = - ; : : ; 9 8 = = ",
"O O : ; - = = - ; : > , < 1 1 < !.~.B ^.^ ( ( ( ( ( ( ( ( ( ( ( ( ( ( ( ( ( ( u.' u y.y.* * = - ; : : ; X . . X e > > e - = * * ",
"o o ; w q 4 4 q w ; e r t 5 5 /.(.).^._.`.( ( ( ( ( ( ( ( ( ( ( ( ( ( ( ( ( ( W k.' G '.]._ 4 q w ; ; h 9 . . c r , , f.d.4 & & ",
"X X - q y 3 3 y q - X c i & _ [.{.W.^ `.}.( ( ( ( ( ( ( ( ( ( ( ( ( ( ( ( ( ( g.W u.Q.|. XV.3 y q - X 9 u   = i t < # j.h.% % % ",
". . = 4 3 2 2 3 4 = . . = * ` L W ( ( ( ( ( ( ( ( ( ( ( ( ( ( ( ( ( ( ( ( ( ( ( ( ( ( T.H.C.2 3 4 = . .     * & 5 1 $ $ $ $ $ $ ",
"= = 7 6 3 2 2 3 6 7 = = = = * L Q ( ( ( ( ( ( ( ( ( ( ( ( ( ( ( ( ( ( ( ( ( ( ( ( ( ( Y.G.C.2 3 4 = . .     * & 3 2 $ $ $ $ $ $ ",
"%.%.s a p 3 3 p a s %.%.%.%.V .XXX( ( g.W u.u.W g.( ( ( ( ( ( ( ( ( ( g.W u.u.W g.( ( U.F.V.3 y q - X 9 u   * k x 3 % % % % % % ",
"5.5.b v a 6 6 a v b 5.5.5.5.oXOX+X( ( W k.' ' k.W ( ( ( ( ( ( ( ( ( ( W k.' ' k.W ( ( I.D.B.4 q w ; ; h 9 .   j k & & & & & & & ",
"9.9.m b s 7 7 s b m 9.9.9.9.@X#X$X( ( u.' u u ' u.( ( ( ( ( ( ( ( ( ( u.' u u ' u.( ( Q L ` = - ; : : ; X .     * * * * * * * * ",
"9.9.m b d 8 8 d 5.9.%X%X%X%X&X*X$X( ( u.G y.y.G u.( ( ( ( ( ( ( ( ( ( u.G y.y.G u.( ( Q L * 8 9 ; : : ; - = * *         . . . . ",
"5.5.b n f 9 9 =XoX9.%X-X;X:X>X,X<X( ( u.G y.y.G u.( ( ( ( ( ( ( ( ( ( u.G y.y.G u.( ( XX.XV d f g ; ; w q 4 & k j     u 9 X X X ",
"%.%.d f g ; e 1X2X8.%X;X3X4X5X6X7X( ( u.G y.y.G u.( ( ( ( ( ( ( ( ( ( u.G y.y.G u.( ( +XOXoXb n f 9 - q y 3 3 x k * . 9 h ; o o ",
"= = 8 9 ; : O q.=.8.%X:X4X8X9X0XY.( ( u.G y.y.G u.( ( ( ( ( ( ( ( ( ( u.G y.y.G u.( ( $X#X@Xm b d 8 = 4 3 2 2 3 & * . X ; : O O ",
"* * = - ; : O q.-.9.w.e.r.t.2 H.T.( ( W G     G Q ( ( ( ( ( ( ( ( ( ( Q L ` ` L Q ( ( <X#X@Xm b d 8 = 4 3 2 2 3 0 7 = - ; : O O ",
"& & 4 q w ; e 2.3.4.5.6.7.< Z.J.R.Q.W E F M M H ! ( ( g.W u.u.W g.( ( I.D.B._ ..>.Q qXwXeXoXb n f 9 - q y 3 3 z l 0 4 q w ; o o ",
"% % 3 y q - X $.s %.d &.*., , K.E.G G F D ; N J ~ ( ( W k.' ' k.W ( ( U.F.V.3  ...L G rXtX%.d f g ; ; w q 4 0 l z 3 3 y q - X X ",
"$ $ 2 3 4 = . . = = 8 9 e > > e M     M ; : B K ^ ( ( u.' u u ' u.( ( Y.G.C.2 3 _ ` y.y.= = 8 9 ; : : ; - = 7 0 3 2 2 3 4 = . . ",
"$ $ 2 3 6 7 = = = * = - ; : : ; X . . X ; : B K ^ ( ( Q G     G Q ( ( Y.0X9X$ s.4 = . . = * = - ; : : ; - = 7 0 3 2 2 3 0 7 * * ",
"% % 3 p a s %.d _ & 4 q w ; ; h 9 . . 9 h ; N J ~ ( ( ! H M M H ! ( ( 7X6X5Xi.yXuX- X c i & 4 q w ; ; w q 4 0 l z 3 3 z l 0 & & ",
"& & 6 a v b 5.p.a.s.3 y q - X 9 u     u 9 X M H ! ( ( ~ J N N J ~ ( ( <X,X>XiXpX1Xe e r t 5 3 y q - - q y 3 3 z l 0 0 l z 3 % % ",
"* * 7 s b m w.e.i.$ 2 3 4 = . .         . .   G Q ( ( ^ K B B K ^ ( ( $X*X&X%XaXq.O > , < 1 2 3 4 = = 4 3 2 2 3 0 7 7 0 3 2 $ $ ",
". . 8 d 4.9.%XiXi.$ 2 3 4 = . . . . . .     y.G u.( ( ^ K B B K ^ ( ( $X#X@X9.-.q.O > , < 1 2 3 6 7 7 6 5 1 1 5 & * * & 5 1 $ $ ",
"X X 9 :.;.-.aXpXyXs.3 y q - X X X X X 9 u   y.G u.( ( ~ J N N J ~ ( ( +XOXoX4.3.2.e e r t 5 3 p a s s sXdX< < t i = = i t < # # ",
"o o o | } { q.1XuX4 4 q w ; o o o o ; h 9 . y.G u.( ( ! H M M H ! ( ( XX.XV %.s $.X X c i & 6 a v b 4.fXgXhX, r c . . c r , @ @ ",
"O O O O ) + O e - = = - ; : O O O O : ; X . y.G u.( ( Q G     G Q ( ( Q L * = = . . . . = * 7 s b m 9.-.[ + > e X . . X e > + + ",
") ) ) ) O O : ; Z C C Z ; : O O O O : ; M   u ' u.( ( Q L ` ` L Q ( ( u.' u y.y.* * * *     = %.b m 9.-.[ + > e X . . X ; : O O ",
") ) ) jXkXo ; Y U Z Z U Y ; o o o o ; D F G ' k.W ( ( I.D.B.B.D.I.( ( W k.' G '.]._ & k j   = z.l.b 4.fXgXhX, r c . . 9 h ; o o ",
") ) O kXlXZ Z U Y ; ; Y U Z X X X X M F E W u.W g.( ( U.F.V.V.F.U.( ( g.W u.Q.|. XV.3 x k *   n.z.%.s sXdX< < t i =   u 9 X X X ",
") ) O o Z C C Z ; : : ; Z C . . . .   G W ( ( ( ( ( ( Y.G.C.C.G.Y.( ( ( ( ( ( T.H.C.2 3 & *     = = 7 6 5 1 1 5 & *     . . . . ",
"O O : ; - = = - ; : : ; Z C . .     y.G Q ( ( ( ( ( ( zXH.C.C.H.T.( ( ( ( ( ( xX0X9X$ s.& *     . . = 4 3 2 2 3 0 7 * *         ",
"o o ; w q 4 4 q w ; ; Y U Z X 9 u   y.x.c.Q Q ! ~ ^ cXvXbXV.V. X|.Q.Q I.U.Y.xXnXmX5Xi.a._ =   u 9 X - q y 3 3 z l 0 & k j       ",
"X X - q y 3 3 y q - Z U Y ; ; h 9 .   C x.G G H J K MXNXBX4 _ ].'.G L D.F.G.0XmXVX;Xe.p.d = . 9 h ; ; w q 4 0 l z 3 3 x k *     ",
". . = 4 3 2 2 3 4 = C Z ; : : ; X .     y.y.  M N B B N - = * * y.y.` B.V.C.9X5X;XCXw.5.%.= . X ; : : ; - = 7 0 3 2 2 3 & *     ",
"    * & % $ $ % & * . X o O O o X .         . X o O O o X .         * & % $ ZXAX:X%X9.5.%.= . X o O O o X . * & % $ $ % & *     ",
"    * & % $ $ % & * . X o O O o X .         . X o O O o X .         * & % $ ZXAX:X%X9.5.%.= . X o O O o X . * & % $ $ % & *     "
};
