/* XPM */
static char * coin64_xpm[] = {
"64 64 33 1",
" 	c #796A6A",
".	c #736363",
"+	c #786969",
"@	c #6F6060",
"#	c #716262",
"$	c #625252",
"%	c #645454",
"&	c #766767",
"*	c #5E4E4E",
"=	c #6E5E5E",
"-	c #5E4E4D",
";	c #5A4948",
">	c #554140",
",	c #5D4D4C",
"'	c #564241",
")	c #533F3E",
"!	c #443433",
"~	c #463635",
"{	c #4C3A39",
"]	c #4B3938",
"^	c #5B4A49",
"/	c #5C4B4A",
"(	c #54403F",
"_	c #584544",
":	c #594746",
"<	c #5C4C4B",
"[	c #4A3938",
"}	c #483736",
"|	c #453534",
"1	c #473736",
"2	c #5A4847",
"3	c #493837",
"4	c #523E3D",
"                                                               .",
"                                                                ",
"                                                                ",
"                                                                ",
"                                                                ",
"                                                                ",
"                                                                ",
"                                                                ",
"                                                                ",
"                                                                ",
"                                                                ",
"                                                                ",
"                                                                ",
"                                                                ",
"                                                                ",
"                                                                ",
"                                                                ",
"                               ++                               ",
"                               @#                               ",
"                              +$%+                              ",
"                             &%**$=+                            ",
"****************************************************************",
"*******************************--*******************************",
"*******************************;;*******************************",
"******************************->>-******************************",
"*****************************,'))',*****************************",
")))))!!!!!!!!!!!!!!)))))))))))))))))))))))))))))))))))))))))))))",
")))))!!!!!!!!!!!!!!)))))))))))))))))))))))))))))))))))))))))))))",
")))))!!!!!!!!!!!!!!)))))))))))))))))))))))))))))))))))))))))))))",
")))))~!!!!!!!!!!!!~)))))))))))))))))))))))))))))))))))))))))))))",
"))))){!!!!!!!!!!!!{)))))))))))))))))))))))))))))))))))))))))))))",
"))))))]!!!!!!!!!!]))))))))))))))))))))))))))))))))))))))))))))))",
"))))))))))))))))))))))))))))))))))))))))))))))))))))))))))))))))",
"))))))))))))))))))))))))))))))))))))))))))))))))))))))))))))))))",
"))))'^/****/^'))))))))))))))))))))))))))))))))))))))))))))))))))",
")))),********,))))))))))))))))))))))))))))))))))))))))))))))))))",
")))(**********))))))))))))))))))))))))))))))))))))))))))))))))))",
"))))**********))))))))))))))))))))))))))))))))))))))))))))))))))",
"))))**********))))))))))))))))))))))))))))))))))))))))))))))))))",
"))))**********))))))))))))))))))))))))))))))_//*******//_)))))))",
"))))**********))))))))))))))))))))))))))))):*************:))))))",
"))))**********)))))))))))))))))))))))))))))-*************-))))))",
"))))<********/)))))))))))))))))))))))))))))***************()))))",
"))))',******,')))))))))))))))))))))))))))))***************))))))",
")))))))))))))))))))))))))))))))))))))))))))***************))))))",
")))))))))))))))))))))))))))))))))))))))))))***************))))))",
")))))))))))))))))))))))))))))))))))))))))))***************))))))",
")))))))))))))))))))))))))))))[}~!!!!!|}[)))***************))))))",
"))))))))))))))))))))))))))))}!!!!!!!!!!!}))***************))))))",
"))))))))))))))))))))))))))))1!!!!!!!!!!!1))***************))))))",
"))))))))))))))))))))))))))))!!!!!!!!!!!!!))***************))))))",
"))))))))))))))))))))))))))))!!!!!!!!!!!!!)),*************,))))))",
"))))))))))))))))))))))))))))!!!!!!!!!!!!!)):*************:))))))",
"))))))))))))))))))))))))))))!!!!!!!!!!!!!)))2***********2)))))))",
"))))))))))))))))))))))))))))!!!!!!!!!!!!!)))))))))))))))))))))))",
"))))))))))))))))))))))))))))!!!!!!!!!!!!!)))))))))))))))))))))))",
"))))))))))))))))))))))))))))!!!!!!!!!!!!!)))))))))))))))))))))))",
"))))))))))))))))))))))))))))|!!!!!!!!!!!!)))))))))))))))))))))))",
"))))))))))))))))))))))))))))[!!!!!!!!!!!3)))))))))))))))))))))))",
")))))))))))))))))))))))))))))}!!!!!!!!!14)))))))))))))))))))))))",
"))))))))))))))))))))))))))))))))))))))))))))))))))))))))))))))))",
"))))))))))))))))))))))))))))))))))))))))))))))))))))))))))))))))",
"))))))))))))))))))))))))))))))))))))))))))))))))))))))))))))))))",
"))))))))))))))))))))))))))))))))))))))))))))))))))))))))))))))))"};
