/* XPM */
static char * one64_xpm[] = {
"64 64 32 1",
" 	c #869595",
".	c #879696",
"+	c #909F9F",
"@	c #8E9D9D",
"#	c #9DADAD",
"$	c #9BABAB",
"%	c #899898",
"&	c #A1B1B1",
"*	c #91A1A1",
"=	c #A1B1B2",
"-	c #A5B6B7",
";	c #AABEBF",
">	c #A2B2B3",
",	c #A9BDBE",
"'	c #ACC0C1",
")	c #BBCBCC",
"!	c #B9C9CA",
"~	c #B3C5C6",
"{	c #B4C6C7",
"]	c #A4B5B6",
"^	c #A3B4B5",
"/	c #ABBFC0",
"(	c #A7BABB",
"_	c #A6B8B9",
":	c #A3B3B4",
"<	c #B7C8C9",
"[	c #BACACB",
"}	c #B5C6C7",
"|	c #A5B7B8",
"1	c #B6C7C8",
"2	c #B8C8C9",
"3	c #ADC1C2",
"                                                                ",
"                                                                ",
"                                                                ",
"                                                                ",
"                                                                ",
"                                                                ",
"                                                                ",
"                                                                ",
"                                                                ",
"                                                                ",
"                                                                ",
"                                                                ",
"                                                                ",
"                                                                ",
"                                                                ",
"                                                                ",
"                                                                ",
"                               ..                               ",
"                               +@                               ",
"                              .#$.                              ",
"                             %$&&#*.                            ",
"&&&&&&&&&&&&&&&&&&&&&&&&&&&&&&&&&&&&&&&&&&&&&&&&&&&&&&&&&&&&&&&&",
"&&&&&&&&&&&&&&&&&&&&&&&&&&&&&&&==&&&&&&&&&&&&&&&&&&&&&&&&&&&&&&&",
"&&&&&&&&&&&&&&&&&&&&&&&&&&&&&&&--&&&&&&&&&&&&&&&&&&&&&&&&&&&&&&&",
"&&&&&&&&&&&&&&&&&&&&&&&&&&&&&&=;;=&&&&&&&&&&&&&&&&&&&&&&&&&&&&&&",
"&&&&&&&&&&&&&&&&&&&&&&&&&&&&&>,'',>&&&&&&&&&&&&&&&&&&&&&&&&&&&&&",
"'''''))))))))))))))'''''''''''''''''''''''''''''''''''''''''''''",
"'''''))))))))))))))'''''''''''''''''''''''''''''''''''''''''''''",
"'''''))))))))))))))'''''''''''''''''''''''''''''''''''''''''''''",
"'''''!))))))))))))!'''''''''''''''''''''''''''''''''''''''''''''",
"'''''~))))))))))))~'''''''''''''''''''''''''''''''''''''''''''''",
"''''''{)))))))))){''''''''''''''''''''''''''''''''''''''''''''''",
"''''''''''''''''''''''''''''''''''''''''''''''''''''''''''''''''",
"''''''''''''''''''''''''''''''''''''''''''''''''''''''''''''''''",
"'''',]^&&&&^],''''''''''''''''''''''''''''''''''''''''''''''''''",
"''''>&&&&&&&&>''''''''''''''''''''''''''''''''''''''''''''''''''",
"'''/&&&&&&&&&&''''''''''''''''''''''''''''''''''''''''''''''''''",
"''''&&&&&&&&&&''''''''''''''''''''''''''''''''''''''''''''''''''",
"''''&&&&&&&&&&''''''''''''''''''''''''''''''''''''''''''''''''''",
"''''&&&&&&&&&&''''''''''''''''''''''''''''''(^^&&&&&&&^^('''''''",
"''''&&&&&&&&&&'''''''''''''''''''''''''''''_&&&&&&&&&&&&&_''''''",
"''''&&&&&&&&&&'''''''''''''''''''''''''''''=&&&&&&&&&&&&&=''''''",
"'''':&&&&&&&&^'''''''''''''''''''''''''''''&&&&&&&&&&&&&&&/'''''",
"'''',>&&&&&&>,'''''''''''''''''''''''''''''&&&&&&&&&&&&&&&''''''",
"'''''''''''''''''''''''''''''''''''''''''''&&&&&&&&&&&&&&&''''''",
"'''''''''''''''''''''''''''''''''''''''''''&&&&&&&&&&&&&&&''''''",
"'''''''''''''''''''''''''''''''''''''''''''&&&&&&&&&&&&&&&''''''",
"'''''''''''''''''''''''''''''{<!)))))[<}'''&&&&&&&&&&&&&&&''''''",
"''''''''''''''''''''''''''''<)))))))))))<''&&&&&&&&&&&&&&&''''''",
"'''''''''''''''''''''''''''')))))))))))))''&&&&&&&&&&&&&&&''''''",
"'''''''''''''''''''''''''''')))))))))))))''&&&&&&&&&&&&&&&''''''",
"'''''''''''''''''''''''''''')))))))))))))''>&&&&&&&&&&&&&>''''''",
"'''''''''''''''''''''''''''')))))))))))))''_&&&&&&&&&&&&&_''''''",
"'''''''''''''''''''''''''''')))))))))))))'''|&&&&&&&&&&&|'''''''",
"'''''''''''''''''''''''''''')))))))))))))'''''''''''''''''''''''",
"'''''''''''''''''''''''''''')))))))))))))'''''''''''''''''''''''",
"'''''''''''''''''''''''''''')))))))))))))'''''''''''''''''''''''",
"''''''''''''''''''''''''''''[))))))))))))'''''''''''''''''''''''",
"''''''''''''''''''''''''''''})))))))))))1'''''''''''''''''''''''",
"'''''''''''''''''''''''''''''<)))))))))23'''''''''''''''''''''''",
"''''''''''''''''''''''''''''''''''''''''''''''''''''''''''''''''",
"''''''''''''''''''''''''''''''''''''''''''''''''''''''''''''''''",
"''''''''''''''''''''''''''''''''''''''''''''''''''''''''''''''''",
"''''''''''''''''''''''''''''''''''''''''''''''''''''''''''''''''"};
