/* XPM */
static char *zero64[] = {
/* columns rows colors chars-per-pixel */
"64 64 6 1 ",
"  c #128D19",
". c #3DAB1D",
"X c #1FCC27",
"o c #76FC44",
"O c #A6EC2F",
"+ c #8BFB5B",
/* pixels */
"XXXX....oooo    XXXX        XXXX    ....                    OOOO",
"XXXX....oooo    XXXX        XXXX    ....                    OOOO",
"XXXX....oooo    XXXX        XXXX    ....                    OOOO",
"XXXX....oooo    XXXX        XXXX    ....                    OOOO",
"    XXXXXXXX    ....oooo    ....oooo            oooo    oooo    ",
"    XXXXXXXX    ....oooo    ....oooo            oooo    oooo    ",
"    XXXXXXXX    ....oooo    ....oooo            oooo    oooo    ",
"    XXXXXXXX    ....oooo    ....oooo            oooo    oooo    ",
"XXXX    XXXX....                    ....XXXX    ....            ",
"XXXX    XXXX....                    ....XXXX    ....            ",
"XXXX    XXXX....                    ....XXXX    ....            ",
"XXXX    XXXX....                    ....XXXX    ....            ",
"    oooo        OOOO    ....    oooo    ....    OOOOoooo....    ",
"    oooo        OOOO    ....    oooo    ....    OOOOoooo....    ",
"    oooo        OOOO    ....    oooo    ....    OOOOoooo....    ",
"    oooo        OOOO    ....    oooo    ....    OOOOoooo....    ",
"        ....oooooooo                                XXXX    XXXX",
"        ....oooooooo                                XXXX    XXXX",
"        ....oooooooo                                XXXX    XXXX",
"        ....oooooooo                                XXXX    XXXX",
"....oooo    XXXXXXXX    oooo    ....OOOO        ....    XXXX    ",
"....oooo    XXXXXXXX    oooo    ....OOOO        ....    XXXX    ",
"....oooo    XXXXXXXX    oooo    ....OOOO        ....    XXXX    ",
"....oooo    XXXXXXXX    oooo    ....OOOO        ....    XXXX    ",
"XXXX            oooo....                XXXX                XXXX",
"XXXX            oooo....                XXXX                XXXX",
"XXXX            oooo....                XXXX                XXXX",
"XXXX            oooo....                XXXX                XXXX",
"oooooooo    OOOO++++    oooo    oooo....    ....XXXX    oooo    ",
"oooooooo    OOOO++++    oooo    oooo....    ....XXXX    oooo    ",
"oooooooo    OOOO++++    oooo    oooo....    ....XXXX    oooo    ",
"oooooooo    OOOO++++    oooo    oooo....    ....XXXX    oooo    ",
"    ....    oooo        ++++                                    ",
"    ....    oooo        ++++                                    ",
"    ....    oooo        ++++                                    ",
"    ....    oooo        ++++                                    ",
"                ....    ....        ....        ....OOOOXXXX    ",
"                ....    ....        ....        ....OOOOXXXX    ",
"                ....    ....        ....        ....OOOOXXXX    ",
"                ....    ....        ....        ....OOOOXXXX    ",
"    oooo    oooo                oooo                oooo....    ",
"    oooo    oooo                oooo                oooo....    ",
"    oooo    oooo                oooo                oooo....    ",
"    oooo    oooo                oooo                oooo....    ",
"    XXXX....        OOOOoooo....    ....    oooo            oooo",
"    XXXX....        OOOOoooo....    ....    oooo            oooo",
"    XXXX....        OOOOoooo....    ....    oooo            oooo",
"    XXXX....        OOOOoooo....    ....    oooo            oooo",
"        ++++    oooo                oooo    ....XXXX            ",
"        ++++    oooo                oooo    ....XXXX            ",
"        ++++    oooo                oooo    ....XXXX            ",
"        ++++    oooo                oooo    ....XXXX            ",
"    oooo        XXXX++++                        ....    oooo    ",
"    oooo        XXXX++++                        ....    oooo    ",
"    oooo        XXXX++++                        ....    oooo    ",
"    oooo        XXXX++++                        ....    oooo    ",
"            ooooOOOO    oooo....        ....oooooooo....        ",
"            ooooOOOO    oooo....        ....oooooooo....        ",
"            ooooOOOO    oooo....        ....oooooooo....        ",
"            ooooOOOO    oooo....        ....oooooooo....        ",
"    oooo    ++++                XXXXoooo            OOOO        ",
"    oooo    ++++                XXXXoooo            OOOO        ",
"    oooo    ++++                XXXXoooo            OOOO        ",
"    oooo    ++++                XXXXoooo            OOOO        "
};
